<svg width="14" height="10" viewBox="0 0 12 12" fill="none" xmlns="http://www.w3.org/2000/svg">
    <path d="M8.875 0C7.623 0 6.4865 1.01314 6 2.38314C5.5135 1.01259 4.377 0 3.125 0C1.402 0 0 1.53476 0 3.42091C0 7.12096 4.877 11.1221 5.8545 11.8862L6 12L6.1455 11.8862C7.1235 11.1221 12 7.12042 12 3.42091C12 1.53476 10.598 0 8.875 0ZM6 11.3262C3.4295 9.28188 0.5 6.03284 0.5 3.42091C0.5 1.83634 1.6775 0.547345 3.125 0.547345C4.499 0.547345 5.75 2.11275 5.75 3.83142H6.25C6.25 2.11275 7.501 0.547345 8.875 0.547345C10.3225 0.547345 11.5 1.83634 11.5 3.42091C11.5 6.03284 8.5705 9.28188 6 11.3262Z" fill="black"/>
</svg>
