<svg width="12" height="12" viewBox="0 0 12 12" fill="none" xmlns="http://www.w3.org/2000/svg">
    <g clip-path="url(#clip0_1001_8)">
        <path d="M8.74999 0.4585C8.18697 0.467257 7.63622 0.624427 7.15338 0.914136C6.67053 1.20384 6.27267 1.61583 5.99999 2.1085C5.72731 1.61583 5.32946 1.20384 4.84661 0.914136C4.36376 0.624427 3.81302 0.467257 3.24999 0.4585C2.35246 0.497495 1.50685 0.890127 0.897886 1.55062C0.288924 2.21111 -0.0338809 3.08576 -5.59585e-06 3.9835C-5.59585e-06 7.371 5.47799 11.2835 5.71099 11.4495L5.99999 11.654L6.28899 11.4495C6.52199 11.2845 12 7.371 12 3.9835C12.0339 3.08576 11.7111 2.21111 11.1021 1.55062C10.4931 0.890127 9.64752 0.497495 8.74999 0.4585Z" fill="#FF0000"/>
    </g>
    <defs>
        <clipPath id="clip0_1001_8">
            <rect width="12" height="12" fill="white"/>
        </clipPath>
    </defs>
</svg>
